<svg width="58" height="58" viewBox="0 0 58 58" fill="none" xmlns="http://www.w3.org/2000/svg">
<path d="M37.8 28.8C37.8 31.1869 36.8518 33.4761 35.164 35.164C33.4761 36.8518 31.1869 37.8 28.8 37.8C26.4131 37.8 24.1239 36.8518 22.436 35.164C20.7482 33.4761 19.8 31.1869 19.8 28.8C19.8 28.287 19.854 27.786 19.947 27.3H16.8V39.291C16.8 40.125 17.475 40.8 18.309 40.8H39.294C39.6937 40.7992 40.0767 40.6399 40.3591 40.357C40.6414 40.0741 40.8 39.6907 40.8 39.291V27.3H37.653C37.746 27.786 37.8 28.287 37.8 28.8ZM28.8 34.8C29.5881 34.7998 30.3685 34.6444 31.0966 34.3426C31.8246 34.0408 32.4861 33.5986 33.0433 33.0411C33.6004 32.4837 34.0423 31.822 34.3437 31.0938C34.6452 30.3656 34.8002 29.5851 34.8 28.797C34.7998 28.0089 34.6444 27.2285 34.3426 26.5004C34.0408 25.7724 33.5986 25.1109 33.0411 24.5537C32.4837 23.9966 31.822 23.5547 31.0938 23.2533C30.3656 22.9518 29.5851 22.7968 28.797 22.797C27.2053 22.7974 25.679 23.4301 24.5537 24.5559C23.4285 25.6816 22.7966 27.2083 22.797 28.8C22.7974 30.3917 23.4301 31.918 24.5559 33.0433C25.6816 34.1685 27.2083 34.8004 28.8 34.8ZM36 22.5H39.597C39.836 22.5 40.0652 22.4053 40.2345 22.2366C40.4037 22.0679 40.4992 21.839 40.5 21.6V18.003C40.5 17.7635 40.4049 17.5338 40.2355 17.3645C40.0662 17.1951 39.8365 17.1 39.597 17.1H36C35.7605 17.1 35.5308 17.1951 35.3615 17.3645C35.1921 17.5338 35.097 17.7635 35.097 18.003V21.6C35.1 22.095 35.505 22.5 36 22.5ZM28.8 0C21.1618 0 13.8364 3.03428 8.43532 8.43532C3.03428 13.8364 0 21.1618 0 28.8C0 36.4382 3.03428 43.7636 8.43532 49.1647C13.8364 54.5657 21.1618 57.6 28.8 57.6C32.5821 57.6 36.3271 56.8551 39.8213 55.4077C43.3155 53.9604 46.4903 51.839 49.1647 49.1647C51.839 46.4903 53.9604 43.3155 55.4077 39.8213C56.8551 36.3271 57.6 32.5821 57.6 28.8C57.6 25.0179 56.8551 21.2729 55.4077 17.7787C53.9604 14.2845 51.839 11.1097 49.1647 8.43532C46.4903 5.761 43.3155 3.63961 39.8213 2.19227C36.3271 0.744934 32.5821 0 28.8 0ZM43.8 40.467C43.8 42.3 42.3 43.8 40.467 43.8H17.133C15.3 43.8 13.8 42.3 13.8 40.467V17.133C13.8 15.3 15.3 13.8 17.133 13.8H40.467C42.3 13.8 43.8 15.3 43.8 17.133V40.467Z" fill="black"/>
</svg>
