<svg width="54" height="54" viewBox="0 0 54 54" fill="none" xmlns="http://www.w3.org/2000/svg">
<path d="M12 6C12 9.186 9.87 11.928 5.997 11.928C2.352 11.928 0 9.342 0 6.156C0 2.886 2.28 0 6 0C9.72 0 11.928 2.73 12 6ZM0 54V15H12V54H0Z" fill="black"/>
<path d="M18 28.3319C18 23.6969 17.847 19.8239 17.694 16.4789H28.476L29.01 21.6479H29.238C30.756 19.2149 34.476 15.6479 40.704 15.6479C48.3 15.6479 54 20.7329 54 31.6739V53.9999H42V33.4169C42 28.6349 40.179 24.9869 36 24.9869C32.814 24.9869 31.218 27.5669 30.381 29.6939C30.075 30.4559 30 31.5179 30 32.5829V53.9999H18V28.3319Z" fill="black"/>
</svg>
